<svg width="44" height="44" viewBox="0 0 44 44" fill="none" xmlns="http://www.w3.org/2000/svg">
<path d="M43.6146 41.7561L32.922 31.0634C35.7903 27.7659 37.5268 23.4634 37.5268 18.761C37.5268 8.40976 29.1073 0 18.7659 0C8.41464 0 0.00488281 8.41951 0.00488281 18.761C0.00488281 29.1024 8.4244 37.522 18.7659 37.522C23.4683 37.522 27.7707 35.7854 31.0683 32.9171L41.761 43.6098C42.0146 43.8634 42.3561 44 42.6878 44C43.0195 44 43.361 43.8732 43.6146 43.6098C44.122 43.1024 44.122 42.2634 43.6146 41.7561ZM2.62927 18.761C2.62927 9.86341 9.8683 2.63415 18.7561 2.63415C27.6537 2.63415 34.8829 9.87317 34.8829 18.761C34.8829 27.6488 27.6537 34.8976 18.7561 34.8976C9.8683 34.8976 2.62927 27.6585 2.62927 18.761Z" fill="white"/>
</svg>