<svg width="25" height="21" viewBox="0 0 25 21" fill="none" xmlns="http://www.w3.org/2000/svg">
<path d="M25 3.02759C23.4274 3.10007 23.4617 3.09416 23.284 3.10904L24.2153 0.449239C24.2153 0.449239 21.3081 1.51869 20.5711 1.71C18.6356 -0.0296963 15.7585 -0.106562 13.7016 1.15763C12.0172 2.19313 11.1132 3.97135 11.4147 6.04979C8.13656 5.59488 5.37453 4.04097 3.19385 1.42141L2.50416 0.593053L1.98879 1.53948C1.33743 2.73539 1.12114 4.10277 1.37959 5.38965C1.48563 5.91761 1.66588 6.42115 1.91555 6.89264L1.32389 6.66338L1.2537 7.65196C1.18256 8.65618 1.51691 9.82844 2.14825 10.7875C2.32601 11.0575 2.55489 11.3541 2.845 11.6467L2.53925 11.5998L2.91233 12.7326C3.40271 14.2209 4.42123 15.3723 5.74303 16.0124C4.42295 16.5726 3.35655 16.9301 1.6037 17.5067L0 18.0338L1.48125 18.8437C2.04601 19.1525 4.04167 20.1838 6.01349 20.4932C10.3966 21.1806 15.3315 20.6208 18.6537 17.6287C21.4519 15.1085 22.3701 11.5237 22.1794 7.7931C22.1506 7.22834 22.3053 6.68932 22.615 6.27562C23.2355 5.44726 24.9962 3.03312 25 3.02759ZM21.4437 5.39824C20.9293 6.08507 20.6716 6.96226 20.7178 7.86787C20.9103 11.6309 19.8864 14.5491 17.6744 16.5412C15.0906 18.8683 10.9228 19.7817 6.24027 19.0472C5.39226 18.9143 4.51584 18.6165 3.79047 18.3192C5.26009 17.8136 6.39496 17.3628 8.22773 16.4954L10.7862 15.2844L7.96146 15.1036C6.60839 15.017 5.48172 14.3612 4.78916 13.2966C5.1569 13.2752 5.51147 13.2157 5.86452 13.1173L8.55865 12.3669L5.84202 11.7016C4.52194 11.3783 3.76949 10.5885 3.37067 9.98274C3.10879 9.58468 2.9377 9.17689 2.83508 8.80095C3.10745 8.874 3.42503 8.92607 3.93715 8.9768L6.45161 9.22552L4.45938 7.67142C3.02391 6.5518 2.44865 4.86971 2.87037 3.25266C7.35035 7.89934 12.6104 7.55011 13.1399 7.67294C13.0234 6.54093 13.0203 6.53826 12.9898 6.43049C12.3117 4.03353 13.7978 2.81645 14.468 2.40446C15.868 1.54406 18.0902 1.41436 19.6295 2.8319C19.9619 3.13784 20.4115 3.25819 20.8322 3.15367C21.2099 3.05983 21.5198 2.96045 21.8233 2.85231L21.1916 4.65628L21.998 4.65685C21.8458 4.86094 21.6633 5.10527 21.4437 5.39824Z" fill="#40948E"/>
</svg>